<?xml version="1.0" standalone="no"?>
<!DOCTYPE svg PUBLIC "-//W3C//DTD SVG 1.1//EN" "http://www.w3.org/Graphics/SVG/1.1/DTD/svg11.dtd" >
<svg xmlns="http://www.w3.org/2000/svg" xmlns:xlink="http://www.w3.org/1999/xlink" version="1.1">
<metadata>
Created by FontForge 20160407 at Sun May  8 04:17:34 2016
 By Jimmy Wärting
Copyrighted (c) 1981, 1997 by and the property of Linotype-Hell AG and/or its subsidiaries. All Rights Reserved. All Cyrillic characters designed by DoubleAlex. Helvetica is a registered Trademark of Linotype-Hell AG and/or its subsidiaries.
</metadata>
<defs>
<font id="HelveticaNeueCyr-LightItalic" horiz-adv-x="556" >
  <font-face 
    font-family="HelveticaNeueCyr"
    font-weight="300"
    font-style="italic"
    font-stretch="normal"
    units-per-em="1000"
    panose-1="2 0 5 3 4 0 0 9 0 4"
    ascent="800"
    descent="-200"
    x-height="514"
    cap-height="712"
    bbox="-138 -214 1056 905"
    underline-thickness="50"
    underline-position="-100"
    slope="-12"
    stemh="53"
    stemv="63"
    unicode-range="U+0020-E001"
  />
<missing-glyph horiz-adv-x="1000" 
 />
    <glyph glyph-name=".notdef" horiz-adv-x="1000" 
 />
    <glyph glyph-name="exclam" unicode="!" horiz-adv-x="278" 
d="M124 99l-21 -99h-74l21 99h74zM250 712l-47 -220l-81 -314h-37l52 314l46 220h67z" />
    <glyph glyph-name="quotedbl" unicode="&#x22;" horiz-adv-x="370" 
d="M146 410h-40l52 281h54zM294 410h-40l53 281h53z" />
    <glyph glyph-name="numbersign" unicode="#" 
d="M127 0h-54l46 211h-113l10 48h114l38 174h-113l10 48h114l46 210h54l-46 -210h137l46 210h54l-46 -210h114l-11 -48h-114l-38 -174h113l-11 -48h-113l-46 -211h-54l46 211h-137zM321 259l38 174h-137l-38 -174h137z" />
    <glyph glyph-name="dollar" unicode="$" 
d="M387 781l-15 -74c112 -15 170 -74 170 -175c0 -5 -1 -9 -1 -18h-59v16c0 73 -43 117 -121 127l-58 -274c94 -28 184 -72 184 -187c0 -125 -101 -212 -248 -212c-6 0 -10 1 -20 1l-18 -87h-36l19 88c-118 12 -186 85 -186 200c0 8 0 12 1 24h60c-1 -11 -1 -15 -1 -23
c0 -87 48 -140 137 -150l63 300c-87 27 -174 61 -174 170c0 120 95 203 231 203c7 0 11 -1 21 -1l15 72h36zM270 394l56 266h-14c-97 0 -168 -62 -168 -146c0 -61 33 -93 126 -120zM291 327l-61 -293h14c104 0 182 67 182 156c0 68 -42 111 -135 137z" />
    <glyph glyph-name="percent" unicode="%" horiz-adv-x="833" 
d="M712 727l-540 -760h-55l540 760h55zM767 220c0 -109 -61 -234 -185 -234c-84 0 -134 53 -134 140c0 107 61 236 183 236c86 0 136 -57 136 -142zM629 318c-90 0 -127 -111 -127 -185c0 -70 27 -104 82 -104c90 0 130 119 130 192c0 56 -25 97 -85 97zM388 565
c0 -109 -61 -234 -185 -234c-84 0 -134 53 -134 140c0 107 61 236 183 236c86 0 136 -57 136 -142zM250 663c-90 0 -127 -111 -127 -185c0 -70 27 -104 82 -104c90 0 130 119 130 192c0 56 -25 97 -85 97z" />
    <glyph glyph-name="ampersand" unicode="&#x26;" horiz-adv-x="611" 
d="M546 314c-11 -63 -40 -125 -86 -183l86 -131h-71l-56 88c-54 -65 -119 -102 -206 -102c-107 0 -193 64 -193 176c0 144 123 185 204 232c-31 50 -61 99 -61 160c0 91 68 156 164 156c90 0 153 -54 153 -132c0 -103 -100 -157 -177 -200l125 -198c33 49 48 85 58 134h60z
M276 420c52 29 148 72 148 152c0 52 -39 87 -97 87c-62 0 -106 -43 -106 -103c0 -50 30 -94 55 -136zM253 351c-74 -41 -173 -85 -173 -184c0 -75 57 -129 136 -129c63 0 131 38 173 95z" />
    <glyph glyph-name="quotesingle" unicode="'" horiz-adv-x="278" 
d="M178 410h-40l52 281h54z" />
    <glyph glyph-name="parenleft" unicode="(" horiz-adv-x="259" 
d="M342 721c-146 -170 -235 -382 -235 -608c0 -100 17 -205 49 -300h-43c-41 101 -66 230 -66 338c0 216 100 414 243 570h52z" />
    <glyph glyph-name="parenright" unicode=")" horiz-adv-x="259" 
d="M127 721c40 -102 65 -224 65 -334c0 -221 -91 -403 -242 -574h-53c150 180 235 375 235 608c0 103 -16 200 -48 300h43z" />
    <glyph glyph-name="asterisk" unicode="*" horiz-adv-x="352" 
d="M272 720l-26 -120l118 24l4 -38l-115 -25l59 -101l-36 -19l-60 106l-86 -93l-29 28l84 89l-100 55l20 35l102 -56l25 119z" />
    <glyph glyph-name="plus" unicode="+" horiz-adv-x="600" 
d="M253 0v217h-221v49h221v217h54v-217h222v-49h-222v-217h-54z" />
    <glyph glyph-name="comma" unicode="," horiz-adv-x="278" 
d="M130 103l-22 -103c-18 -86 -52 -125 -121 -137l8 39c47 14 61 53 69 98h-36l22 103h80z" />
    <glyph glyph-name="hyphen" unicode="-" horiz-adv-x="370" 
d="M302 304l-13 -59h-251l12 59h252z" />
    <glyph glyph-name="period" unicode="." horiz-adv-x="278" 
d="M129 103l-23 -103h-83l23 103h83z" />
    <glyph glyph-name="slash" unicode="/" horiz-adv-x="333" 
d="M389 721l-412 -733h-55l413 733h54z" />
    <glyph glyph-name="zero" unicode="0" 
d="M529 462c0 -179 -84 -478 -307 -478c-127 0 -199 89 -199 246c0 180 87 472 307 472c147 0 199 -106 199 -240zM329 648c-176 0 -242 -287 -242 -430c0 -115 50 -180 139 -180c178 0 239 293 239 426c0 94 -27 184 -136 184z" />
    <glyph glyph-name="one" unicode="1" 
d="M417 697l-148 -697h-65l124 581c-52 -31 -135 -52 -194 -57l10 49c91 10 169 49 223 124h50z" />
    <glyph glyph-name="two" unicode="2" 
d="M453 56l-12 -56h-453c11 166 164 242 291 313c81 45 180 101 180 207c0 78 -56 129 -143 129c-100 0 -166 -68 -176 -183h-59c8 145 101 237 239 237c122 0 201 -71 201 -181c0 -131 -105 -194 -206 -251c-80 -45 -230 -119 -255 -216c18 0 6 1 63 1h330z" />
    <glyph glyph-name="three" unicode="3" 
d="M70 222c-2 -16 -2 -22 -2 -35c0 -92 60 -148 158 -148c104 0 184 71 184 177c0 99 -82 122 -162 122c-6 0 -10 0 -23 -1l11 53c18 -1 24 -1 36 -1c90 0 184 31 184 140c0 72 -54 119 -138 119c-93 0 -158 -60 -174 -161h-60c20 136 107 215 236 215
c119 0 200 -68 200 -169c0 -88 -57 -153 -146 -170c66 -20 104 -74 104 -147c0 -144 -119 -231 -255 -231c-132 0 -216 76 -216 197c0 16 0 22 3 40h60z" />
    <glyph glyph-name="four" unicode="4" 
d="M499 225l-12 -52h-105l-36 -173h-62l37 173h-323l13 59l426 469h55l-99 -476h106zM332 225l56 265c8 38 17 76 26 114l-345 -380c16 0 33 1 49 1h214z" />
    <glyph glyph-name="five" unicode="5" 
d="M531 691l-12 -55h-305l-77 -228c39 36 91 55 148 55c122 0 203 -81 203 -205c0 -149 -107 -273 -262 -273c-130 0 -210 74 -210 193v21h62c-1 -11 -1 -15 -1 -23c0 -84 58 -138 150 -138c112 0 192 88 192 213c0 98 -58 157 -153 157c-64 0 -116 -26 -150 -77l-57 3
l115 357h357z" />
    <glyph glyph-name="six" unicode="6" 
d="M544 521h-62c-6 80 -37 130 -129 130c-160 0 -204 -172 -239 -295c40 62 106 99 179 99c122 0 205 -85 205 -209c0 -151 -104 -262 -247 -262c-138 0 -216 88 -216 243c0 45 8 101 21 158c37 155 113 319 298 319c118 0 190 -66 190 -177v-6zM283 401
c-107 0 -184 -83 -184 -198c0 -100 62 -166 156 -166c103 0 179 88 179 209c0 92 -58 155 -151 155z" />
    <glyph glyph-name="seven" unicode="7" 
d="M568 691l-12 -55c-169 -163 -314 -409 -385 -636h-70c62 215 219 464 388 631h-379l12 60h446z" />
    <glyph glyph-name="eight" unicode="8" 
d="M374 368c73 -24 116 -85 116 -163c0 -140 -121 -218 -250 -218c-138 0 -224 76 -224 197c0 106 72 181 186 196c-63 26 -97 76 -97 141c0 108 87 181 215 181c122 0 201 -67 201 -169c0 -83 -62 -153 -147 -165zM320 651c-93 0 -154 -54 -154 -136
c0 -73 55 -119 143 -119c89 0 150 54 150 134c0 83 -63 121 -139 121zM264 346c-111 0 -182 -64 -182 -163c0 -89 62 -144 162 -144c107 0 180 68 180 167c0 96 -72 140 -160 140z" />
    <glyph glyph-name="nine" unicode="9" 
d="M18 168h60v-6c0 -77 51 -124 135 -124c159 0 205 179 231 303c-43 -70 -105 -106 -183 -106c-120 0 -202 85 -202 208c0 150 106 262 248 262c145 0 212 -98 212 -240c0 -76 -18 -183 -46 -260c-45 -127 -117 -221 -262 -221c-121 0 -193 66 -193 178v6zM306 649
c-106 0 -184 -88 -184 -207c0 -92 60 -152 152 -152c102 0 180 87 180 201c0 96 -49 158 -148 158z" />
    <glyph glyph-name="colon" unicode=":" horiz-adv-x="278" 
d="M136 103l-23 -103h-83l23 103h83zM220 501l-23 -103h-83l23 103h83z" />
    <glyph glyph-name="semicolon" unicode=";" horiz-adv-x="278" 
d="M220 501l-23 -103h-83l23 103h83zM135 103l-22 -103c-18 -86 -52 -125 -121 -137l8 39c47 14 61 53 69 98h-36l22 103h80z" />
    <glyph glyph-name="less" unicode="&#x3c;" horiz-adv-x="600" 
d="M22 233v54l497 200v-54l-435 -173l435 -172v-53z" />
    <glyph glyph-name="equal" unicode="=" horiz-adv-x="600" 
d="M31 320v48h497v-48h-497zM31 137v48h497v-48h-497z" />
    <glyph glyph-name="greater" unicode="&#x3e;" horiz-adv-x="600" 
d="M552 233l-497 -198v53l435 172l-435 173v54l497 -200v-54z" />
    <glyph glyph-name="question" unicode="?" horiz-adv-x="537" 
d="M250 99l-21 -99h-75l22 99h74zM259 182h-59c16 102 45 143 129 200c58 39 124 92 124 170c0 71 -51 118 -130 118c-113 0 -162 -79 -176 -179h-60c14 135 91 233 238 233c117 0 195 -67 195 -169c0 -112 -83 -164 -164 -221c-79 -56 -83 -95 -97 -152z" />
    <glyph glyph-name="at" unicode="@" horiz-adv-x="800" 
d="M704 118l20 -26c-94 -68 -185 -105 -305 -105c-210 0 -389 136 -389 357c0 216 176 380 406 380c197 0 334 -121 334 -294c0 -140 -94 -260 -203 -260c-45 0 -76 28 -76 69c0 11 2 18 7 37c-31 -61 -73 -106 -147 -106c-79 0 -133 60 -133 147c0 128 92 240 197 240
c67 0 112 -35 123 -95l24 81h50l-57 -190c-16 -52 -23 -84 -23 -104c0 -27 19 -44 48 -44c79 0 155 110 155 225c0 154 -122 259 -300 259c-210 0 -369 -150 -369 -346c0 -200 165 -321 354 -321c109 0 198 34 284 96zM513 426c0 58 -35 96 -87 96
c-76 0 -149 -100 -149 -204c0 -69 34 -113 88 -113c94 0 148 144 148 221z" />
    <glyph glyph-name="A" unicode="A" horiz-adv-x="630" 
d="M436 712l129 -712h-70l-37 224h-322l-133 -224h-77l435 712h75zM387 653c-22 -48 -61 -112 -89 -159l-130 -215h281l-41 236c-8 46 -16 91 -21 138z" />
    <glyph glyph-name="B" unicode="B" horiz-adv-x="667" 
d="M152 712h228c115 0 247 -10 247 -163c0 -94 -58 -162 -154 -178c77 -17 121 -71 121 -148c0 -97 -61 -184 -155 -210c-41 -11 -67 -13 -153 -13h-284zM206 654l-54 -259h197c50 0 105 1 148 29c40 26 63 70 63 120c0 106 -95 110 -177 110h-177zM141 342l-61 -284h195
c63 0 100 2 135 10c68 16 117 78 117 152c0 119 -106 122 -193 122h-193z" />
    <glyph glyph-name="C" unicode="C" horiz-adv-x="704" 
d="M649 245c-43 -165 -162 -262 -328 -262c-176 0 -285 115 -286 302c-1 225 145 442 387 442c157 0 265 -95 265 -232v-7h-66c-7 117 -77 180 -200 180c-201 0 -317 -195 -317 -379c0 -154 83 -248 218 -248c127 0 224 76 258 204h69z" />
    <glyph glyph-name="D" unicode="D" horiz-adv-x="685" 
d="M152 712h183c108 0 155 -8 201 -35c78 -45 120 -132 120 -251c0 -182 -107 -371 -292 -414c-38 -9 -76 -12 -153 -12h-209zM207 654l-125 -596h188c207 0 320 177 320 372c0 171 -86 224 -237 224h-146z" />
    <glyph glyph-name="E" unicode="E" horiz-adv-x="574" 
d="M631 712l-12 -58h-411l-55 -257h384l-12 -58h-383l-60 -281h420l-13 -58h-487l151 712h478z" />
    <glyph glyph-name="F" unicode="F" horiz-adv-x="537" 
d="M610 712l-12 -58h-389l-55 -258h347l-12 -56h-347l-72 -340h-68l151 712h457z" />
    <glyph glyph-name="G" unicode="G" horiz-adv-x="741" 
d="M696 362l-75 -362h-46l14 120c-69 -94 -142 -137 -260 -137c-179 0 -287 114 -287 304c0 238 148 438 397 438c162 0 266 -89 270 -231h-66c-10 117 -88 174 -207 174c-208 0 -326 -193 -326 -382c0 -155 85 -247 230 -247c173 0 255 124 285 267h-246l12 56h305z" />
    <glyph glyph-name="H" unicode="H" horiz-adv-x="704" 
d="M702 712l-150 -712h-68l73 343h-411l-74 -343h-67l151 712h67l-65 -311h411l66 311h67z" />
    <glyph glyph-name="I" unicode="I" horiz-adv-x="222" 
d="M223 712l-151 -712h-68l151 712h68z" />
    <glyph glyph-name="J" unicode="J" horiz-adv-x="500" 
d="M512 712l-102 -484c-12 -55 -23 -112 -54 -160c-35 -55 -96 -84 -177 -84c-118 0 -185 60 -185 164c0 24 2 47 9 81h65c-7 -42 -9 -60 -9 -79c0 -71 42 -110 120 -110c118 0 142 88 162 182l104 490h67z" />
    <glyph glyph-name="K" unicode="K" horiz-adv-x="648" 
d="M693 712l-364 -297l253 -415h-76l-227 374l-159 -127l-52 -247h-67l150 712h67l-81 -381l463 381h93z" />
    <glyph glyph-name="L" unicode="L" horiz-adv-x="537" 
d="M222 712l-139 -654h391l-13 -58h-458l151 712h68z" />
    <glyph glyph-name="M" unicode="M" horiz-adv-x="852" 
d="M852 712l-151 -712h-66l87 403c18 84 39 166 61 249c-28 -56 -62 -110 -95 -163l-303 -489h-61l-98 498c-10 51 -18 102 -26 154c-13 -89 -30 -176 -49 -264l-82 -388h-65l152 712h92l93 -490c10 -52 21 -104 25 -157c25 44 49 87 75 130l316 517h95z" />
    <glyph glyph-name="N" unicode="N" horiz-adv-x="704" 
d="M708 712l-150 -712h-75l-232 504c-20 44 -39 88 -56 134c-11 -62 -22 -125 -35 -187l-95 -451h-66l152 712h74l228 -497c22 -47 45 -94 60 -144c16 74 27 150 43 224l88 417h64z" />
    <glyph glyph-name="O" unicode="O" horiz-adv-x="741" 
d="M714 429c0 -228 -133 -448 -386 -448c-182 0 -293 117 -293 308c0 231 141 437 387 437c177 0 292 -120 292 -297zM417 667c-210 0 -315 -191 -315 -378c0 -154 89 -250 231 -250c209 0 312 206 312 389c0 143 -83 239 -228 239z" />
    <glyph glyph-name="P" unicode="P" horiz-adv-x="630" 
d="M150 712h237c57 0 94 -4 125 -13c68 -20 113 -86 113 -168c0 -83 -43 -160 -110 -196c-43 -23 -86 -29 -186 -29h-197l-65 -306h-68zM206 654l-62 -292h184c55 0 116 -2 163 30c41 27 67 80 67 135c0 52 -24 102 -77 117c-29 8 -55 10 -114 10h-161z" />
    <glyph glyph-name="Q" unicode="Q" horiz-adv-x="741" 
d="M649 -24l-40 -41l-99 94c-56 -32 -114 -47 -184 -47c-184 0 -292 126 -292 306c0 253 164 438 387 438c181 0 293 -116 293 -303c0 -143 -60 -281 -156 -361zM422 190l91 -86c88 73 132 203 132 315c0 152 -87 248 -226 248c-200 0 -317 -185 -317 -371
c0 -155 93 -255 236 -255c47 0 87 9 126 31l-82 77z" />
    <glyph glyph-name="R" unicode="R" horiz-adv-x="648" 
d="M151 712h250c55 0 84 -2 113 -9c78 -17 127 -81 127 -167c0 -107 -73 -187 -180 -198c68 -14 89 -66 89 -129c0 -48 -8 -96 -8 -144c0 -25 3 -46 11 -65h-70c-6 16 -9 34 -9 59s10 98 10 147c0 104 -59 110 -153 110h-196l-67 -316h-67zM206 653l-59 -282h203
c54 0 118 1 163 34c38 27 61 75 61 125c0 34 -10 62 -30 84c-28 31 -61 39 -151 39h-187z" />
    <glyph glyph-name="S" unicode="S" horiz-adv-x="630" 
d="M603 505h-64v12c0 100 -62 151 -185 151c-115 0 -187 -53 -187 -137c0 -99 115 -122 190 -143c100 -28 197 -64 197 -187c0 -129 -109 -215 -273 -215c-169 0 -267 83 -267 228c0 6 0 11 1 21h65v-16c0 -128 81 -177 203 -177c123 0 205 62 205 155
c0 90 -77 110 -148 130c-108 31 -237 59 -237 200c0 120 98 197 252 197c135 0 249 -53 249 -202c0 -5 0 -8 -1 -17z" />
    <glyph glyph-name="T" unicode="T" 
d="M635 712l-12 -58h-244l-138 -654h-68l138 654h-250l12 58h562z" />
    <glyph glyph-name="U" unicode="U" horiz-adv-x="704" 
d="M707 712l-93 -436c-13 -63 -25 -126 -63 -180c-50 -71 -136 -109 -248 -109c-155 0 -255 80 -255 204c0 30 4 59 14 107l88 414h67l-89 -423c-7 -31 -12 -62 -12 -94c0 -96 69 -154 184 -154c60 0 117 17 155 45c59 44 78 122 93 195l91 431h68z" />
    <glyph glyph-name="V" unicode="V" horiz-adv-x="593" 
d="M664 712l-409 -712h-79l-111 712h70l71 -487c8 -54 14 -110 20 -164c28 49 53 100 81 149l284 502h73z" />
    <glyph glyph-name="W" unicode="W" horiz-adv-x="907" 
d="M971 712l-338 -712h-73l-40 479c-5 56 -9 113 -11 170c-30 -59 -54 -122 -83 -182l-227 -467h-74l-54 712h68l30 -447c4 -65 7 -129 7 -194c25 63 54 124 84 185l222 456h78l35 -420c6 -72 12 -144 14 -216c28 71 59 143 92 212l200 424h70z" />
    <glyph glyph-name="X" unicode="X" horiz-adv-x="574" 
d="M643 712l-307 -351l185 -361h-72l-158 318l-276 -318h-81l326 371l-174 341h73l146 -299l258 299h80z" />
    <glyph glyph-name="Y" unicode="Y" horiz-adv-x="574" 
d="M676 712l-354 -424l-61 -288h-67l62 295l-189 417h72l159 -363l298 363h80z" />
    <glyph glyph-name="Z" unicode="Z" horiz-adv-x="574" 
d="M621 712l-12 -60l-570 -596c32 0 65 2 97 2h379l-12 -58h-554l13 61l566 593h-431l13 58h511z" />
    <glyph glyph-name="bracketleft" unicode="[" horiz-adv-x="241" 
d="M328 718l-10 -48h-104l-170 -804h103l-11 -49h-162l192 901h162z" />
    <glyph glyph-name="backslash" unicode="\" horiz-adv-x="333" 
d="M406 -12h-55l-412 733h54z" />
    <glyph glyph-name="bracketright" unicode="]" horiz-adv-x="241" 
d="M233 718l-193 -901h-162l10 49h104l172 803h-103l10 49h162z" />
    <glyph glyph-name="asciicircum" unicode="^" horiz-adv-x="600" 
d="M106 297l168 415h53l167 -415h-57l-138 352l-135 -352h-58z" />
    <glyph glyph-name="underscore" unicode="_" horiz-adv-x="500" 
d="M0 -125v50h500v-50h-500z" />
    <glyph glyph-name="grave" unicode="`" horiz-adv-x="185" 
d="M172 593h-50l-106 143h73z" />
    <glyph glyph-name="a" unicode="a" horiz-adv-x="519" 
d="M62 363c23 111 97 164 216 164c114 0 177 -44 177 -123c0 -20 -4 -43 -14 -88l-37 -165c-4 -20 -13 -54 -13 -75c0 -22 8 -32 27 -32c10 0 15 1 30 4l-9 -48c-22 -6 -29 -7 -46 -7c-38 0 -59 21 -59 60c0 8 1 14 4 27c-44 -63 -106 -95 -187 -95c-98 0 -158 54 -158 141
c0 142 142 160 251 168c36 2 111 2 134 32c10 13 18 48 18 75c0 49 -38 73 -116 73c-90 0 -138 -34 -158 -111h-60zM374 278c-29 -29 -103 -29 -141 -32c-75 -5 -179 -16 -179 -116c0 -60 44 -96 115 -96c45 0 85 15 119 45c40 35 54 65 75 153z" />
    <glyph glyph-name="b" unicode="b" horiz-adv-x="574" 
d="M209 712l-61 -289c46 71 109 106 184 106c125 0 191 -94 191 -215c0 -154 -97 -329 -268 -329c-93 0 -158 49 -178 133l-23 -118h-58l152 712h61zM320 478c-58 0 -108 -25 -146 -73c-42 -52 -70 -138 -70 -212c0 -96 56 -158 144 -158c140 0 214 157 214 278
c0 91 -45 165 -142 165z" />
    <glyph glyph-name="c" unicode="c" horiz-adv-x="519" 
d="M460 166c-37 -112 -113 -181 -238 -181c-128 0 -202 79 -202 215c0 165 104 329 284 329c113 0 186 -66 186 -168v-6h-62v1c0 75 -48 121 -128 121c-145 0 -218 -146 -218 -274c0 -106 52 -165 144 -165c78 0 140 46 170 128h64z" />
    <glyph glyph-name="d" unicode="d" horiz-adv-x="574" 
d="M586 712l-150 -712h-58l10 45c5 22 7 32 14 59c-39 -75 -105 -119 -192 -119c-123 0 -194 75 -194 205c0 162 101 339 281 339c90 0 151 -44 166 -119c4 24 6 33 11 55l51 247h61zM312 476h-12c-149 0 -222 -155 -222 -286c0 -98 53 -155 142 -155c147 0 219 173 219 298
c0 84 -49 143 -127 143z" />
    <glyph glyph-name="e" unicode="e" horiz-adv-x="519" 
d="M454 165c-34 -113 -111 -182 -235 -182c-130 0 -207 82 -207 220c0 184 118 325 273 325c123 0 197 -79 197 -210c0 -27 -1 -39 -6 -75h-399c-3 -18 -4 -25 -4 -42c0 -104 56 -166 149 -166c80 0 141 47 168 130h64zM85 294h335c2 14 2 19 2 29c0 97 -52 154 -141 154
c-96 0 -170 -69 -196 -183z" />
    <glyph glyph-name="f" unicode="f" horiz-adv-x="259" 
d="M299 514l-11 -52h-103l-99 -462h-62l99 462h-88l11 52h88l9 37c24 98 38 168 157 168c23 0 32 -1 55 -7l-10 -53c-18 4 -25 5 -41 5c-77 0 -83 -49 -99 -113l-9 -37h103z" />
    <glyph glyph-name="g" unicode="g" 
d="M533 514l-95 -447c-33 -157 -78 -270 -264 -270c-94 0 -194 42 -194 150v10h63c0 -72 48 -111 136 -111c138 0 168 88 195 200l14 57c-37 -61 -100 -96 -175 -96c-115 0 -192 82 -192 206c0 175 111 310 256 310c96 0 161 -46 175 -123l23 114h58zM284 476
c-132 0 -200 -145 -200 -260c0 -98 54 -158 142 -158c137 0 200 154 200 271c0 88 -54 147 -142 147z" />
    <glyph glyph-name="h" unicode="h" horiz-adv-x="537" 
d="M207 712l-64 -293c53 73 116 108 195 108c90 0 150 -52 150 -131c0 -21 -4 -54 -13 -94l-65 -302h-63l64 299c11 51 12 61 12 86c0 55 -39 88 -104 88c-61 0 -119 -31 -158 -85c-23 -32 -36 -65 -48 -120l-57 -268h-61l150 712h62z" />
    <glyph glyph-name="i" unicode="i" horiz-adv-x="185" 
d="M159 514l-109 -514h-62l109 514h62zM202 715l-22 -103h-62l21 103h63z" />
    <glyph glyph-name="j" unicode="j" horiz-adv-x="185" 
d="M159 514l-110 -524c-23 -111 -32 -187 -140 -187c-17 0 -25 0 -47 4l11 53c14 -3 20 -4 32 -4c17 0 38 5 49 19c12 16 17 41 35 125l108 514h62zM201 715l-21 -103h-63l22 103h62z" />
    <glyph glyph-name="k" unicode="k" horiz-adv-x="463" 
d="M206 712l-96 -449l309 251h84l-246 -197l158 -317h-70l-136 278l-115 -91l-39 -187h-60l151 712h60z" />
    <glyph glyph-name="l" unicode="l" horiz-adv-x="185" 
d="M201 712l-151 -712h-62l151 712h62z" />
    <glyph glyph-name="m" unicode="m" horiz-adv-x="833" 
d="M164 514l-21 -94c48 69 113 108 184 108c75 0 122 -41 127 -111c48 72 110 109 184 109c81 0 140 -49 140 -116c0 -24 -4 -54 -14 -100l-65 -310h-63l66 311c9 43 11 60 11 81c0 49 -36 80 -94 80c-45 0 -85 -19 -120 -57c-33 -35 -47 -67 -63 -144l-57 -271h-63l65 308
c8 38 13 68 13 86c0 48 -34 79 -86 79c-43 0 -86 -19 -122 -56c-37 -37 -54 -73 -70 -146l-58 -271h-62l109 514h59z" />
    <glyph glyph-name="n" unicode="n" horiz-adv-x="537" 
d="M156 514l-20 -96c48 67 109 109 195 109c90 0 150 -52 150 -129c0 -21 -5 -52 -14 -96l-64 -302h-63l65 308c6 26 11 53 11 80c0 52 -40 85 -103 85c-53 0 -104 -23 -142 -66c-38 -42 -52 -89 -64 -144l-56 -263h-62l109 514h58z" />
    <glyph glyph-name="o" unicode="o" 
d="M505 322c0 -163 -96 -338 -279 -338c-134 0 -211 80 -211 218c0 188 120 327 283 327c129 0 207 -77 207 -207zM293 477c-122 0 -216 -119 -216 -274c0 -105 57 -167 152 -167c143 0 213 160 213 284c0 94 -52 157 -149 157z" />
    <glyph glyph-name="p" unicode="p" horiz-adv-x="574" 
d="M161 514l-20 -97c41 72 109 112 192 112c116 0 189 -83 189 -216c0 -154 -92 -328 -265 -328c-96 0 -164 51 -176 132l-65 -309h-61l149 706h57zM315 478c-144 0 -212 -167 -212 -289c0 -94 57 -154 147 -154c140 0 211 158 211 279c0 94 -46 164 -146 164z" />
    <glyph glyph-name="q" unicode="q" horiz-adv-x="574" 
d="M550 514l-149 -706h-61l63 289c-46 -75 -110 -112 -192 -112c-118 0 -189 77 -189 205c0 159 103 339 280 339c92 0 154 -45 169 -122l22 107h57zM304 477c-148 0 -219 -156 -219 -286c0 -98 51 -155 140 -155c148 0 220 171 220 298c0 87 -55 143 -141 143z" />
    <glyph glyph-name="r" unicode="r" horiz-adv-x="315" 
d="M357 521l-14 -65c-12 1 -16 2 -26 2c-42 0 -77 -11 -106 -32c-69 -51 -91 -127 -108 -206l-48 -220h-62l110 514h58l-27 -120c48 86 111 129 191 129c12 0 18 0 32 -2z" />
    <glyph glyph-name="s" unicode="s" horiz-adv-x="481" 
d="M433 364h-61v7c0 70 -42 104 -127 104c-75 0 -123 -33 -123 -85c0 -64 83 -83 140 -105c82 -31 138 -63 138 -144c0 -112 -108 -156 -204 -156c-124 0 -199 61 -199 164c0 6 0 9 1 18h60v-14c0 -75 51 -117 142 -117c81 0 137 40 137 98c0 64 -68 84 -148 116
c-64 26 -127 55 -127 135c0 86 75 143 190 143s181 -55 181 -152v-12z" />
    <glyph glyph-name="t" unicode="t" horiz-adv-x="296" 
d="M301 514l-11 -52h-104l-67 -311c-7 -31 -10 -52 -10 -63c0 -26 18 -38 55 -38c15 0 31 2 52 6l-11 -55c-25 -4 -34 -5 -60 -5c-53 0 -100 16 -100 78c0 18 0 21 12 77l66 311h-92l12 52h91l34 156h62l-33 -156h104z" />
    <glyph glyph-name="u" unicode="u" horiz-adv-x="537" 
d="M505 514l-109 -514h-58l21 96c-46 -75 -106 -110 -185 -110c-92 0 -153 52 -153 132c0 24 4 49 13 92l64 304h63l-66 -312c-6 -28 -10 -61 -10 -75c0 -55 42 -89 108 -89c117 0 173 112 194 211l56 265h62z" />
    <glyph glyph-name="v" unicode="v" horiz-adv-x="463" 
d="M472 514l-288 -514h-68l-82 514h65l49 -325c6 -43 10 -87 13 -130c16 40 37 79 58 117l186 338h67z" />
    <glyph glyph-name="w" unicode="w" horiz-adv-x="741" 
d="M746 514l-268 -514h-68l-31 339c-3 33 -5 67 -7 100c-13 -29 -27 -58 -41 -87l-172 -352h-69l-60 514h65l26 -251c7 -65 15 -131 15 -197c13 34 29 65 45 98l168 350h73l29 -309c7 -76 8 -88 9 -136c12 34 28 67 45 100l175 345h66z" />
    <glyph glyph-name="x" unicode="x" horiz-adv-x="463" 
d="M484 514l-225 -248l137 -266h-71l-110 226l-198 -226h-76l247 271l-122 243h71l95 -204l177 204h75z" />
    <glyph glyph-name="y" unicode="y" horiz-adv-x="463" 
d="M491 514l-302 -534c-52 -93 -97 -176 -192 -176c-19 0 -28 1 -52 6l11 53c20 -4 31 -5 43 -5c47 0 74 34 97 71l44 71l-96 514h66l74 -437l239 437h68z" />
    <glyph glyph-name="z" unicode="z" horiz-adv-x="426" 
d="M442 514l-10 -47l-406 -418c36 5 77 3 114 3h222l-11 -52h-409l10 50l401 412h-309l12 52h386z" />
    <glyph glyph-name="braceleft" unicode="{" horiz-adv-x="333" 
d="M-14 253l8 36c32 0 70 8 97 23c48 26 58 68 70 117l29 119c17 71 36 122 106 153c34 15 77 22 114 22l-7 -35c-30 0 -68 -11 -94 -27c-59 -36 -70 -118 -84 -180l-14 -62c-20 -89 -50 -140 -151 -152c52 -15 92 -49 92 -105c0 -14 -2 -30 -5 -47l-21 -111
c-5 -26 -7 -47 -7 -64c0 -29 14 -55 40 -70c14 -8 36 -14 67 -17l-8 -34h-7c-72 0 -142 43 -142 123c0 18 2 38 6 61l21 111c4 22 6 40 6 53c0 38 -35 67 -69 78c-11 3 -27 6 -47 8z" />
    <glyph glyph-name="bar" unicode="|" horiz-adv-x="222" 
d="M84 -214v1000h54v-1000h-54z" />
    <glyph glyph-name="braceright" unicode="}" horiz-adv-x="333" 
d="M321 289l-8 -36c-32 0 -70 -9 -98 -24c-48 -26 -57 -67 -69 -116l-29 -119c-17 -71 -36 -122 -106 -153c-34 -15 -77 -22 -114 -22l7 35c30 0 68 11 94 27c59 36 70 118 84 180l14 62c20 89 50 140 151 152c-52 15 -92 49 -92 105c0 14 2 30 5 47l21 111c5 26 7 47 7 64
c0 29 -14 55 -40 70c-14 8 -37 14 -67 17l7 34h8c72 0 141 -43 141 -123c0 -18 -2 -38 -6 -61l-20 -111c-4 -22 -6 -40 -6 -53c0 -38 35 -67 69 -78c11 -3 27 -6 47 -8z" />
    <glyph glyph-name="asciitilde" unicode="~" horiz-adv-x="600" 
d="M542 320c-6 -66 -42 -129 -118 -129c-42 0 -95 19 -136 33c-43 14 -105 41 -147 41s-75 -34 -82 -83h-39c12 67 38 131 121 131c47 0 112 -25 155 -40c37 -13 87 -35 127 -35c49 0 74 40 83 82h36z" />
    <glyph glyph-name="afii10017" unicode="&#x410;" horiz-adv-x="630" 
d="M565 0h-70l-37 224h-322l-133 -224h-77l435 712h75zM449 279l-41 236c-8 46 -16 91 -21 138c-22 -48 -61 -112 -89 -159l-130 -215h281z" />
    <glyph glyph-name="afii10018" unicode="&#x411;" horiz-adv-x="667" 
d="M637 712l-12 -58h-413l-51 -244h202c57 0 94 -4 126 -13c69 -20 114 -87 114 -170c0 -84 -43 -161 -111 -198c-44 -23 -87 -29 -187 -29h-300l151 712h481zM536 223c0 52 -24 103 -77 118c-29 8 -55 11 -114 11h-197l-62 -294h220c55 0 116 -2 163 30c41 27 67 80 67 135
z" />
    <glyph glyph-name="afii10019" unicode="&#x412;" horiz-adv-x="667" 
d="M627 549c0 -94 -58 -162 -154 -178c77 -17 121 -71 121 -148c0 -97 -61 -184 -155 -210c-41 -11 -67 -13 -153 -13h-284l150 712h228c115 0 247 -10 247 -163zM560 544c0 106 -95 110 -177 110h-177l-54 -259h197c50 0 105 1 148 29c40 26 63 70 63 120zM527 220
c0 119 -106 122 -193 122h-193l-61 -284h195c63 0 100 2 135 10c68 16 117 78 117 152z" />
    <glyph glyph-name="afii10020" unicode="&#x413;" horiz-adv-x="519" 
d="M597 712l-12 -58h-374l-139 -654h-67l151 712h441z" />
    <glyph glyph-name="afii10021" unicode="&#x414;" horiz-adv-x="704" 
d="M699 712l-139 -654h75l-53 -250h-68l41 192h-552l-41 -192h-68l53 250h63c155 208 201 445 238 613l9 41h442zM619 654h-305l-3 -13c-37 -158 -81 -388 -226 -583h407z" />
    <glyph glyph-name="afii10022" unicode="&#x415;" horiz-adv-x="574" 
d="M631 712l-12 -58h-411l-55 -257h384l-12 -58h-383l-60 -281h420l-13 -58h-487l151 712h478z" />
    <glyph glyph-name="afii10024" unicode="&#x416;" horiz-adv-x="990" 
d="M1042 712l-350 -307l234 -405h-81l-206 358l-121 -106l-54 -252h-68l54 252l-76 105l-353 -357h-94l411 408l-218 304h86l262 -377l79 377h68l-78 -370l408 370h97z" />
    <glyph glyph-name="afii10025" unicode="&#x417;" horiz-adv-x="630" 
d="M596 556c0 -89 -63 -153 -139 -182v-2c65 -18 104 -64 104 -140c0 -159 -138 -245 -288 -245c-178 0 -267 83 -267 228c0 6 0 11 1 21h65v-16c0 -128 81 -177 203 -177c105 0 218 69 218 184c0 72 -61 115 -144 115h-114l12 55h110c89 0 170 63 170 156
c0 82 -67 119 -162 119c-105 0 -183 -75 -202 -148h-67c30 139 151 205 273 205c124 0 227 -61 227 -173z" />
    <glyph glyph-name="afii10026" unicode="&#x418;" horiz-adv-x="704" 
d="M703 712l-151 -712h-68l136 639l-521 -639h-94l151 712h68l-135 -639l520 639h94z" />
    <glyph glyph-name="afii10027" unicode="&#x419;" horiz-adv-x="704" 
d="M586 886c-25 -83 -81 -130 -163 -130c-78 0 -125 40 -125 113c0 5 1 11 1 17h39v-10c0 -45 31 -72 86 -72c57 0 102 30 123 82h39zM703 712l-151 -712h-68l136 639l-521 -639h-94l151 712h68l-135 -639l520 639h94z" />
    <glyph glyph-name="afii10028" unicode="&#x41a;" horiz-adv-x="648" 
d="M693 712l-364 -297l253 -415h-76l-227 374l-159 -127l-52 -247h-67l150 712h67l-81 -381l463 381h93z" />
    <glyph glyph-name="afii10029" unicode="&#x41b;" horiz-adv-x="667" 
d="M667 712l-151 -712h-68l139 654h-276l-103 -419c-35 -143 -87 -250 -199 -250c-28 0 -57 7 -73 13l12 56c12 -6 45 -11 65 -11c51 0 95 50 139 232l107 437h408z" />
    <glyph glyph-name="afii10030" unicode="&#x41c;" horiz-adv-x="852" 
d="M852 712l-151 -712h-66l87 403c18 84 39 166 61 249c-28 -56 -62 -110 -95 -163l-303 -489h-61l-98 498c-10 51 -18 102 -26 154c-13 -89 -30 -176 -49 -264l-82 -388h-65l152 712h92l93 -490c10 -52 21 -104 25 -157c25 44 49 87 75 130l316 517h95z" />
    <glyph glyph-name="afii10031" unicode="&#x41d;" horiz-adv-x="704" 
d="M702 712l-150 -712h-68l73 343h-411l-74 -343h-67l151 712h67l-65 -311h411l66 311h67z" />
    <glyph glyph-name="afii10032" unicode="&#x41e;" horiz-adv-x="741" 
d="M714 429c0 -228 -133 -448 -386 -448c-182 0 -293 117 -293 308c0 231 141 437 387 437c177 0 292 -120 292 -297zM645 428c0 143 -83 239 -228 239c-210 0 -315 -191 -315 -378c0 -154 89 -250 231 -250c209 0 312 206 312 389z" />
    <glyph glyph-name="afii10033" unicode="&#x41f;" horiz-adv-x="704" 
d="M702 712l-150 -712h-68l139 654h-411l-140 -654h-67l151 712h546z" />
    <glyph glyph-name="afii10034" unicode="&#x420;" horiz-adv-x="630" 
d="M625 531c0 -83 -43 -160 -110 -196c-43 -23 -86 -29 -186 -29h-197l-65 -306h-68l151 712h237c57 0 94 -4 125 -13c68 -20 113 -86 113 -168zM558 527c0 52 -24 102 -77 117c-29 8 -55 10 -114 10h-161l-62 -292h184c55 0 116 -2 163 30c41 27 67 80 67 135z" />
    <glyph glyph-name="afii10035" unicode="&#x421;" horiz-adv-x="704" 
d="M687 488h-66c-7 117 -77 180 -200 180c-201 0 -317 -195 -317 -379c0 -154 83 -248 218 -248c127 0 224 76 258 204h69c-43 -165 -162 -262 -328 -262c-176 0 -285 115 -286 302c-1 225 145 442 387 442c157 0 265 -95 265 -232v-7z" />
    <glyph glyph-name="afii10036" unicode="&#x422;" 
d="M635 712l-12 -58h-244l-138 -654h-68l138 654h-250l12 58h562z" />
    <glyph glyph-name="afii10037" unicode="&#x423;" horiz-adv-x="593" 
d="M672 712l-409 -592c-85 -122 -138 -135 -208 -135c-32 0 -52 9 -70 18l12 58c12 -8 33 -18 77 -18c50 0 91 49 126 98l17 24l-154 547h72l131 -475l328 475h78z" />
    <glyph glyph-name="afii10038" unicode="&#x424;" horiz-adv-x="750" 
d="M724 400c0 -198 -168 -314 -355 -314h-17l-19 -86h-68l19 86c-144 6 -256 86 -256 234c0 198 167 314 355 314h17l17 78h68l-17 -78c144 -6 256 -86 256 -234zM657 400c0 114 -85 166 -201 176l-92 -433c161 3 293 91 293 257zM388 577c-161 -3 -293 -91 -293 -257
c0 -114 85 -166 201 -176z" />
    <glyph glyph-name="afii10039" unicode="&#x425;" horiz-adv-x="574" 
d="M643 712l-307 -351l185 -361h-72l-158 318l-276 -318h-81l326 371l-174 341h73l146 -299l258 299h80z" />
    <glyph glyph-name="afii10040" unicode="&#x426;" horiz-adv-x="722" 
d="M716 712l-139 -654h75l-53 -250h-68l41 192h-567l151 712h68l-139 -654h424l139 654h68z" />
    <glyph glyph-name="afii10041" unicode="&#x427;" horiz-adv-x="640" 
d="M639 712l-151 -712h-68l72 340c-41 -10 -161 -30 -225 -30c-155 0 -192 73 -192 150c0 25 4 50 9 73l38 179h68l-41 -193c-3 -15 -6 -32 -6 -50c0 -50 23 -100 129 -100c86 0 194 20 232 29l67 314h68z" />
    <glyph glyph-name="afii10042" unicode="&#x428;" horiz-adv-x="1044" 
d="M1056 712l-151 -712h-900l151 712h68l-139 -654h348l139 654h68l-139 -654h348l139 654h68z" />
    <glyph glyph-name="afii10043" unicode="&#x429;" horiz-adv-x="1062" 
d="M1056 712l-139 -654h75l-53 -250h-68l41 192h-907l151 712h68l-139 -654h348l139 654h68l-139 -654h348l139 654h68z" />
    <glyph glyph-name="afii10044" unicode="&#x42a;" horiz-adv-x="785" 
d="M737 227c0 -84 -43 -161 -111 -198c-44 -23 -87 -29 -187 -29h-280l139 654h-237l12 58h305l-63 -302h182c57 0 94 -4 126 -13c69 -20 114 -87 114 -170zM670 223c0 52 -24 103 -77 118c-29 8 -55 11 -114 11h-177l-62 -294h200c55 0 116 -2 163 30c41 27 67 80 67 135z
" />
    <glyph glyph-name="afii10045" unicode="&#x42b;" horiz-adv-x="841" 
d="M843 712l-150 -712h-68l151 712h67zM574 227c0 -84 -43 -161 -111 -198c-44 -23 -87 -29 -187 -29h-280l151 712h68l-63 -302h182c57 0 94 -4 126 -13c69 -20 114 -87 114 -170zM507 223c0 52 -24 103 -77 118c-29 8 -55 11 -114 11h-177l-62 -294h200
c55 0 116 -2 163 30c41 27 67 80 67 135z" />
    <glyph glyph-name="afii10046" unicode="&#x42c;" horiz-adv-x="630" 
d="M583 227c0 -84 -43 -161 -111 -198c-44 -23 -87 -29 -187 -29h-280l151 712h68l-63 -302h182c57 0 94 -4 126 -13c69 -20 114 -87 114 -170zM516 223c0 52 -24 103 -77 118c-29 8 -55 11 -114 11h-177l-62 -294h200c55 0 116 -2 163 30c41 27 67 80 67 135z" />
    <glyph glyph-name="afii10047" unicode="&#x42d;" horiz-adv-x="704" 
d="M676 425c0 -225 -145 -442 -387 -442c-157 0 -265 95 -265 232v7h66c7 -117 77 -180 200 -180c174 0 278 140 309 298h-374l13 57h368c1 8 1 16 1 24c0 154 -83 248 -218 248c-115 0 -205 -62 -246 -168h-71c15 43 37 82 67 117c62 73 145 109 251 109
c176 0 286 -115 286 -302z" />
    <glyph glyph-name="afii10048" unicode="&#x42e;" horiz-adv-x="1000" 
d="M973 429c0 -228 -133 -448 -386 -448c-182 0 -293 117 -293 308c0 18 1 36 3 54h-151l-74 -343h-67l151 712h67l-65 -312h147c38 182 171 326 376 326c177 0 292 -120 292 -297zM904 428c0 143 -83 239 -228 239c-210 0 -315 -191 -315 -378c0 -154 89 -250 231 -250
c209 0 312 206 312 389z" />
    <glyph glyph-name="afii10049" unicode="&#x42f;" horiz-adv-x="630" 
d="M634 712l-151 -712h-68l67 310h-151l-307 -310h-88l309 312c-100 10 -172 64 -172 177c0 82 42 158 109 194c42 22 85 29 185 29h267zM554 654h-188c-54 0 -114 2 -161 -29c-40 -27 -65 -78 -65 -132c0 -51 23 -100 74 -114c28 -8 54 -11 113 -11h166z" />
    <glyph glyph-name="dagger" unicode="&#x2020;" 
d="M385 712l-47 -221h200l-11 -53h-200l-125 -589h-60l124 589h-199l11 53h200l47 221h60z" />
    <glyph glyph-name="degree" unicode="&#xb0;" horiz-adv-x="400" 
d="M242 712c82 0 148 -66 148 -148s-66 -148 -148 -148s-148 66 -148 148s66 148 148 148zM242 664c-55 0 -100 -45 -100 -100c0 -56 45 -100 100 -100s100 44 100 100c0 55 -45 100 -100 100z" />
    <glyph glyph-name="afii10050" unicode="&#x490;" horiz-adv-x="519" 
d="M583 654h-372l-139 -654h-68l151 712h372l35 163h68z" />
    <glyph glyph-name="sterling" unicode="&#xa3;" 
d="M335 361l-8 -34h-142c8 -34 9 -44 9 -71c0 -95 -60 -143 -126 -202c31 14 67 24 101 24c24 0 44 -4 89 -18c41 -12 64 -17 87 -17c61 0 80 27 117 54l25 -50c-51 -44 -98 -63 -150 -63c-39 0 -77 15 -113 27c-37 12 -61 18 -86 18c-37 0 -63 -10 -118 -43l-23 54
c100 80 138 139 138 213c0 26 -2 39 -12 74h-87l7 34h70c-17 48 -26 94 -26 135c0 124 99 214 235 214c131 0 217 -81 217 -205c0 -8 0 -13 -1 -24h-61v16c0 100 -52 157 -155 157c-101 0 -172 -67 -172 -163c0 -42 8 -85 26 -130h159z" />
    <glyph glyph-name="section" unicode="&#xa7;" 
d="M505 538h-60c1 8 1 11 1 16c0 67 -42 108 -112 108c-62 0 -106 -38 -106 -91c0 -65 51 -98 158 -204c47 -46 96 -93 96 -164c0 -80 -56 -140 -143 -153c21 -25 32 -55 32 -88c0 -84 -75 -146 -175 -146c-109 0 -181 65 -181 164c0 7 1 11 1 20h60c-1 -8 -1 -11 -1 -17
c0 -69 50 -115 125 -115c61 0 107 39 107 89c0 56 -50 104 -116 171c-57 58 -141 125 -141 213c0 76 57 138 139 150c-17 28 -25 52 -25 80c0 83 71 143 170 143c105 0 172 -60 172 -155c0 -5 0 -10 -1 -21zM312 89c58 6 105 46 105 107c0 40 -22 78 -76 131l-127 124
c-51 -4 -104 -43 -104 -105c0 -48 44 -96 76 -128z" />
    <glyph glyph-name="bullet" unicode="&#x2022;" horiz-adv-x="500" 
d="M250 534c98 0 178 -80 178 -178s-80 -178 -178 -178s-178 80 -178 178s80 178 178 178z" />
    <glyph glyph-name="paragraph" unicode="&#xb6;" horiz-adv-x="600" 
d="M607 667h-54l-178 -840h-54l179 840h-126l-179 -840h-54l93 436c-104 8 -165 71 -165 173c0 177 147 276 309 276h238z" />
    <glyph glyph-name="afii10055" unicode="&#x406;" horiz-adv-x="222" 
d="M223 712l-151 -712h-68l151 712h68z" />
    <glyph glyph-name="registered" unicode="&#xae;" horiz-adv-x="400" 
d="M241 723c101 0 183 -82 183 -183c0 -102 -82 -184 -183 -184c-100 0 -182 82 -182 184c0 101 82 183 182 183zM241 696c-85 0 -155 -71 -155 -157c0 -85 70 -156 155 -156c86 0 156 71 156 156c0 86 -70 157 -156 157zM171 633h69c57 0 84 -18 84 -54
c0 -21 -11 -36 -34 -44c23 -11 31 -27 31 -58c0 -16 1 -18 6 -28h-33c-6 17 -2 24 -5 35c-6 39 -21 38 -59 38h-28v-73h-31v184zM202 548h36c38 0 55 9 55 31c0 30 -35 28 -56 28h-35v-59z" />
    <glyph glyph-name="copyright" unicode="&#xa9;" horiz-adv-x="800" 
d="M400 720c202 0 367 -164 367 -367c0 -202 -165 -366 -367 -366c-203 0 -367 164 -367 366c0 203 164 367 367 367zM400 685c-183 0 -332 -148 -332 -331c0 -184 149 -332 332 -332s332 149 332 331c0 183 -149 332 -332 332zM577 278c-11 -79 -80 -136 -166 -136
c-114 0 -199 92 -199 214c0 123 81 214 191 214c92 0 164 -61 171 -144h-44c-12 63 -59 103 -124 103c-83 0 -141 -70 -141 -170c0 -103 61 -176 147 -176c61 0 107 37 121 95h44z" />
    <glyph glyph-name="trademark" unicode="&#x2122;" horiz-adv-x="990" 
d="M267 356v319h-125v37h291v-37h-125v-319h-41zM499 356v356h62l113 -295l113 295h60v-356h-37v315l-120 -315h-35l-119 315v-315h-37z" />
    <glyph glyph-name="afii10051" unicode="&#x402;" horiz-adv-x="722" 
d="M333 -124l13 59c172 12 250 150 250 301c0 84 -44 141 -130 141c-114 0 -193 -74 -222 -210l-35 -167h-68l139 654h-229l12 58h566l-12 -58h-269l-69 -323h3c48 69 123 103 199 103c116 0 185 -85 185 -200c0 -182 -125 -358 -333 -358z" />
    <glyph glyph-name="afii10099" unicode="&#x452;" horiz-adv-x="537" 
d="M462 255c0 -42 -18 -115 -28 -162c-31 -150 -159 -278 -320 -284l13 59c126 7 221 109 246 234c13 64 24 103 24 142c0 55 -39 88 -104 88c-61 0 -119 -31 -158 -85c-23 -32 -35 -65 -48 -120l-29 -127h-63l98 462h-52l11 52h52l42 198h63l-42 -198h233l-11 -52h-233
l-38 -180h2c52 70 116 104 192 104c90 0 150 -52 150 -131z" />
    <glyph glyph-name="notequal" unicode="&#x2260;" horiz-adv-x="600" 
d="M214 185l71 135h-253v48h280l77 145l42 -22l-66 -123h164v-48h-190l-72 -135h262v-48h-288l-75 -141l-42 23l64 118h-156v48h182z" />
    <glyph glyph-name="afii10052" unicode="&#x403;" horiz-adv-x="519" 
d="M72 0h-67l151 712h441l-12 -58h-374zM528 905l-146 -143h-53l116 143h83z" />
    <glyph glyph-name="afii10100" unicode="&#x453;" horiz-adv-x="400" 
d="M428 461h-278l-98 -461h-63l109 514h341zM413 736l-146 -143h-53l116 143h83z" />
    <glyph glyph-name="infinity" unicode="&#x221e;" horiz-adv-x="722" 
d="M343 276c52 48 109 112 185 112c79 0 135 -58 135 -139c0 -82 -54 -139 -132 -139c-57 0 -104 26 -188 105c-58 -46 -109 -105 -190 -105c-77 0 -132 56 -132 136c0 81 55 141 131 141c73 0 140 -66 191 -111zM376 246c41 -38 97 -88 157 -88c49 0 82 36 82 88
c0 57 -33 94 -85 94c-56 0 -115 -59 -154 -94zM309 246c-39 33 -104 93 -158 93c-47 0 -82 -39 -82 -92c0 -54 34 -89 86 -89s117 51 154 88z" />
    <glyph glyph-name="plusminus" unicode="&#xb1;" horiz-adv-x="600" 
d="M250 86v178h-222v48h222v177h53v-177h222v-48h-222v-178h-53zM28 -8v48h497v-48h-497z" />
    <glyph glyph-name="lessequal" unicode="&#x2264;" horiz-adv-x="600" 
d="M25 260v54l497 193v-54l-431 -166l431 -166v-53zM25 23h497v-48h-497v48z" />
    <glyph glyph-name="greaterequal" unicode="&#x2265;" horiz-adv-x="600" 
d="M548 260l-497 -192v53l430 166l-430 166v54l497 -193v-54zM548 23v-48h-497v48h497z" />
    <glyph glyph-name="afii10103" unicode="&#x456;" horiz-adv-x="185" 
d="M159 514l-109 -514h-62l109 514h62zM202 715l-22 -103h-62l21 103h63z" />
    <glyph glyph-name="mu" unicode="&#xb5;" horiz-adv-x="537" 
d="M102 514h63l-61 -289c-6 -30 -14 -61 -14 -92c0 -61 38 -95 105 -95c117 0 175 110 196 210l57 266h62l-110 -514h-59l22 96c-42 -65 -94 -110 -178 -110c-58 0 -94 20 -120 72l-52 -250h-63z" />
    <glyph glyph-name="afii10098" unicode="&#x491;" horiz-adv-x="400" 
d="M425 461h-271l-98 -461h-63l109 514h271l34 157h63z" />
    <glyph glyph-name="afii10057" unicode="&#x408;" horiz-adv-x="500" 
d="M512 712l-102 -484c-12 -55 -23 -112 -54 -160c-35 -55 -96 -84 -177 -84c-118 0 -185 60 -185 164c0 24 2 47 9 81h65c-7 -42 -9 -60 -9 -79c0 -71 42 -110 120 -110c118 0 142 88 162 182l104 490h67z" />
    <glyph glyph-name="afii10053" unicode="&#x404;" horiz-adv-x="704" 
d="M506 397l-13 -57h-386c-2 -17 -3 -34 -3 -51c0 -154 83 -248 218 -248c127 0 224 76 258 204h69c-43 -165 -162 -262 -328 -262c-176 0 -285 115 -286 302c-1 225 145 442 387 442c155 0 262 -92 265 -226h-67c-11 109 -81 167 -199 167c-161 0 -268 -126 -304 -271h389z
" />
    <glyph glyph-name="afii10101" unicode="&#x454;" horiz-adv-x="519" 
d="M337 292l-11 -53h-242c-1 -12 -2 -24 -2 -36c0 -106 52 -165 144 -165c78 0 140 46 170 128h64c-37 -112 -113 -181 -238 -181c-128 0 -202 79 -202 215c0 165 104 329 284 329c112 0 185 -65 186 -165h-62c-3 70 -51 113 -128 113c-112 0 -181 -87 -206 -185h243z" />
    <glyph glyph-name="afii10056" unicode="&#x407;" horiz-adv-x="222" 
d="M223 712l-151 -712h-68l151 712h68zM167 880l-21 -101h-64l21 101h64zM331 880l-20 -101h-65l21 101h64z" />
    <glyph glyph-name="afii10104" unicode="&#x457;" horiz-adv-x="185" 
d="M159 514l-109 -514h-62l109 514h62zM112 709l-21 -101h-64l21 101h64zM276 709l-20 -101h-65l21 101h64z" />
    <glyph glyph-name="afii10058" unicode="&#x409;" horiz-adv-x="1000" 
d="M950 227c0 -84 -44 -162 -111 -198c-44 -24 -87 -29 -187 -29h-230l139 654h-250l-103 -419c-35 -143 -87 -250 -199 -250c-28 0 -57 6 -73 13l12 56c12 -6 45 -11 65 -11c51 0 95 50 139 232l107 437h382l-64 -302h133c57 0 94 -4 125 -13c69 -20 115 -87 115 -170z
M883 223c0 52 -24 103 -77 118c-29 8 -55 11 -114 11h-127l-62 -294h150c55 0 115 -2 163 30c40 27 67 80 67 135z" />
    <glyph glyph-name="afii10106" unicode="&#x459;" horiz-adv-x="778" 
d="M727 167c0 -61 -32 -119 -82 -146c-32 -17 -64 -21 -138 -21h-193l97 462h-179l-67 -289c-29 -124 -83 -185 -164 -185c-19 0 -54 7 -68 13l11 51c12 -6 43 -11 58 -11c42 0 78 42 100 135l80 338h303l-44 -210h109c42 0 69 -3 92 -10c51 -15 85 -66 85 -127zM666 164
c0 35 -16 70 -52 80c-20 5 -37 7 -77 7h-108l-42 -199h123c38 0 78 -2 111 20c27 18 45 54 45 92z" />
    <glyph glyph-name="afii10059" unicode="&#x40a;" horiz-adv-x="1000" 
d="M495 352h-347l-76 -352h-67l151 712h67l-63 -302h347l64 302h67l-64 -302h139c57 0 94 -4 125 -13c69 -20 115 -87 115 -170c0 -84 -44 -162 -111 -198c-44 -24 -87 -29 -187 -29h-236zM886 223c0 52 -24 103 -77 118c-29 8 -55 11 -114 11h-133l-62 -294h156
c55 0 115 -2 163 30c41 27 67 80 67 135z" />
    <glyph glyph-name="afii10107" unicode="&#x45a;" horiz-adv-x="778" 
d="M356 251h-251l-53 -251h-63l109 514h63l-45 -210h251l45 210h63l-44 -210h119c42 0 70 -3 93 -10c50 -15 84 -66 84 -127s-32 -119 -82 -146c-32 -17 -64 -21 -138 -21h-203zM666 164c0 35 -16 70 -52 80c-20 5 -37 7 -77 7h-118l-42 -199h133c38 0 79 -1 111 20
c28 19 45 54 45 92z" />
    <glyph glyph-name="afii10105" unicode="&#x458;" horiz-adv-x="185" 
d="M159 514l-110 -524c-23 -111 -32 -187 -140 -187c-17 0 -25 0 -47 4l11 53c14 -3 20 -4 32 -4c17 0 38 5 49 19c12 16 17 41 35 125l108 514h62zM201 715l-21 -103h-63l22 103h62z" />
    <glyph glyph-name="afii10054" unicode="&#x405;" horiz-adv-x="630" 
d="M603 505h-64v12c0 100 -62 151 -185 151c-115 0 -187 -53 -187 -137c0 -99 115 -122 190 -143c100 -28 197 -64 197 -187c0 -129 -109 -215 -273 -215c-169 0 -267 83 -267 228c0 6 0 11 1 21h65v-16c0 -128 81 -177 203 -177c123 0 205 62 205 155
c0 90 -77 110 -148 130c-108 31 -237 59 -237 200c0 120 98 197 252 197c135 0 249 -53 249 -202c0 -5 0 -8 -1 -17z" />
    <glyph glyph-name="logicalnot" unicode="&#xac;" horiz-adv-x="600" 
d="M25 320v48h497v-231h-50v183h-447z" />
    <glyph glyph-name="radical" unicode="&#x221a;" horiz-adv-x="600" 
d="M516 786l-210 -1000h-55l-168 346l-45 -22l-19 40l88 44l166 -347l194 939h49z" />
    <glyph glyph-name="florin" unicode="&#x192;" 
d="M435 437l-14 -50h-116l-101 -372c-28 -102 -49 -189 -174 -189c-20 0 -27 1 -50 4l14 53c16 -3 21 -3 34 -3c82 0 95 71 113 138l101 369h-101l13 50h101l31 114c25 92 56 156 167 156c24 0 33 -1 61 -5l-14 -53c-20 3 -28 4 -43 4c-63 0 -86 -25 -111 -117l-27 -99h116z
" />
    <glyph glyph-name="approxequal" unicode="&#x2248;" horiz-adv-x="600" 
d="M538 400c-6 -66 -42 -129 -118 -129c-42 0 -95 19 -136 33c-43 14 -105 41 -147 41s-75 -34 -82 -83h-39c12 67 38 131 121 131c47 0 112 -25 155 -40c37 -13 87 -35 127 -35c49 0 74 40 83 82h36zM538 239c-6 -66 -42 -129 -118 -129c-42 0 -95 19 -136 33
c-43 14 -105 41 -147 41s-75 -34 -82 -83h-39c12 67 38 131 121 131c47 0 112 -25 155 -40c37 -13 87 -35 127 -35c49 0 74 40 83 82h36z" />
    <glyph glyph-name="Delta" unicode="&#x2206;" horiz-adv-x="667" 
d="M341 712l288 -712h-636l285 712h63zM70 52h479l-240 608z" />
    <glyph glyph-name="guillemotleft" unicode="&#xab;" horiz-adv-x="426" 
d="M213 421l-15 -68l-116 -84l77 -103l-14 -62l-105 140l15 64zM373 422l-15 -70l-116 -83l76 -102l-13 -62l-105 139l15 64z" />
    <glyph glyph-name="guillemotright" unicode="&#xbb;" horiz-adv-x="426" 
d="M87 421l105 -138l-15 -64l-158 -114l15 70l115 83l-75 102zM246 422l106 -139l-15 -64l-158 -113l15 68l116 84l-76 102z" />
    <glyph glyph-name="ellipsis" unicode="&#x2026;" horiz-adv-x="1000" 
d="M158 103l-23 -103h-83l23 103h83zM487 103l-23 -103h-83l23 103h83zM822 103l-23 -103h-83l23 103h83z" />
    <glyph glyph-name="nbspace" unicode="&#xe001;" horiz-adv-x="278" 
 />
    <glyph glyph-name="afii10060" unicode="&#x40b;" horiz-adv-x="722" 
d="M466 434c152 0 193 -75 193 -145c0 -23 -3 -47 -8 -70l-47 -219h-68l48 225c3 16 7 36 7 55c0 45 -23 95 -125 95c-54 0 -136 -23 -180 -46l-70 -329h-68l139 654h-229l12 58h566l-12 -58h-269l-56 -263c42 20 125 43 167 43z" />
    <glyph glyph-name="afii10108" unicode="&#x45b;" horiz-adv-x="537" 
d="M462 255c0 -21 -4 -54 -13 -94l-37 -161h-63l36 158c12 51 12 61 12 86c0 55 -39 88 -104 88c-61 0 -119 -31 -158 -85c-23 -32 -35 -65 -48 -120l-29 -127h-63l98 462h-52l11 52h52l42 198h63l-42 -198h233l-11 -52h-233l-38 -180h2c52 70 116 104 192 104
c90 0 150 -52 150 -131z" />
    <glyph glyph-name="afii10061" unicode="&#x40c;" horiz-adv-x="648" 
d="M693 712l-364 -297l253 -415h-76l-227 374l-159 -127l-52 -247h-67l150 712h67l-81 -381l463 381h93zM538 905l-146 -143h-53l116 143h83z" />
    <glyph glyph-name="afii10109" unicode="&#x45c;" horiz-adv-x="463" 
d="M162 514l-55 -259l313 259h84l-257 -209l163 -305h-72l-140 264l-108 -88l-38 -176h-62l110 514h62zM447 736l-146 -143h-53l116 143h83z" />
    <glyph glyph-name="afii10102" unicode="&#x455;" horiz-adv-x="481" 
d="M433 364h-61v7c0 70 -42 104 -127 104c-75 0 -123 -33 -123 -85c0 -64 83 -83 140 -105c82 -31 138 -63 138 -144c0 -112 -108 -156 -204 -156c-124 0 -199 61 -199 164c0 6 0 9 1 18h60v-14c0 -75 51 -117 142 -117c81 0 137 40 137 98c0 64 -68 84 -148 116
c-64 26 -127 55 -127 135c0 86 75 143 190 143s181 -55 181 -152v-12z" />
    <glyph glyph-name="endash" unicode="&#x2013;" horiz-adv-x="500" 
d="M499 304l-13 -60h-498l12 60h499z" />
    <glyph glyph-name="emdash" unicode="&#x2014;" horiz-adv-x="1000" 
d="M1001 304l-13 -60h-1000l12 60h1001z" />
    <glyph glyph-name="quotedblleft" unicode="&#x201c;" horiz-adv-x="370" 
d="M247 487l21 96c20 92 52 132 118 142l-9 -40c-50 -19 -57 -51 -67 -97h35l-21 -101h-77zM94 487l21 96c20 92 52 132 118 142l-9 -40c-50 -19 -57 -51 -67 -97h35l-21 -101h-77z" />
    <glyph glyph-name="quotedblright" unicode="&#x201d;" horiz-adv-x="370" 
d="M226 712l-21 -96c-20 -92 -52 -132 -118 -142l9 40c50 19 57 51 67 97h-35l21 101h77zM379 712l-21 -96c-20 -92 -52 -132 -118 -142l9 40c50 19 57 51 67 97h-35l21 101h77z" />
    <glyph glyph-name="quoteleft" unicode="&#x2018;" horiz-adv-x="278" 
d="M127 484l20 96c16 77 41 131 123 146l-9 -41c-48 -16 -58 -48 -69 -96h37l-22 -105h-80z" />
    <glyph glyph-name="quoteright" unicode="&#x2019;" horiz-adv-x="278" 
d="M261 712l-20 -96c-16 -77 -41 -131 -123 -146l9 41c48 16 58 48 69 96h-37l22 105h80z" />
    <glyph glyph-name="divide" unicode="&#xf7;" horiz-adv-x="600" 
d="M26 216v49h497v-49h-497zM239 13v100h70v-100h-70zM239 368v100h70v-100h-70z" />
    <glyph glyph-name="quotedblbase" unicode="&#x201e;" horiz-adv-x="370" 
d="M102 101l-21 -96c-20 -92 -52 -132 -118 -142l9 40c50 19 57 51 67 97h-35l21 101h77zM255 101l-21 -96c-20 -92 -52 -132 -118 -142l9 40c50 19 57 51 67 97h-35l21 101h77z" />
    <glyph glyph-name="afii10062" unicode="&#x40e;" horiz-adv-x="593" 
d="M217 165l-154 547h72l131 -475l328 475h78l-409 -592c-85 -122 -138 -135 -208 -135c-32 0 -52 9 -70 18l12 58c12 -8 33 -18 77 -18c50 0 91 49 126 98zM247 886h39v-10c0 -45 31 -72 86 -72c57 0 102 30 123 82h39c-25 -83 -81 -130 -163 -130c-78 0 -125 40 -125 113
c0 5 1 11 1 17z" />
    <glyph glyph-name="afii10110" unicode="&#x45e;" horiz-adv-x="463" 
d="M491 514l-302 -534c-52 -93 -97 -176 -192 -176c-19 0 -28 1 -52 6l11 53c20 -4 31 -5 43 -5c47 0 74 34 97 71l44 71l-96 514h66l74 -437l239 437h68zM157 714h39c0 -3 -1 -7 -1 -10c0 -45 31 -72 86 -72c57 0 103 30 124 82h39c-25 -83 -82 -130 -164 -130
c-77 0 -124 40 -124 113c0 5 0 11 1 17z" />
    <glyph glyph-name="afii10145" unicode="&#x40f;" horiz-adv-x="704" 
d="M313 0l-41 -192h-68l41 192h-240l151 712h68l-139 -654h412l139 654h68l-151 -712h-240z" />
    <glyph glyph-name="afii10193" unicode="&#x45f;" horiz-adv-x="537" 
d="M228 0l-35 -164h-63l35 164h-175l109 514h63l-98 -462h287l98 462h63l-109 -514h-175z" />
    <glyph glyph-name="afii61352" unicode="&#x2116;" horiz-adv-x="968" 
d="M861 0h-280l11 53h280zM520 0h-76l-253 581h-2l-123 -581h-68l147 691h76l252 -581h2l124 581h68zM868 296c0 51 -32 82 -75 82c-64 0 -104 -61 -104 -120c0 -50 31 -82 73 -82c66 0 106 59 106 120zM761 132c-76 0 -125 52 -125 125c0 96 62 165 157 165
c78 0 127 -51 127 -127c0 -96 -63 -163 -159 -163z" />
    <glyph glyph-name="afii10023" unicode="&#x401;" horiz-adv-x="574" 
d="M631 712l-12 -58h-411l-55 -257h384l-12 -58h-383l-60 -281h420l-13 -58h-487l151 712h478zM363 880l-21 -101h-64l21 101h64zM527 880l-20 -101h-65l21 101h64z" />
    <glyph glyph-name="afii10071" unicode="&#x451;" horiz-adv-x="519" 
d="M454 165c-34 -113 -111 -182 -235 -182c-130 0 -207 82 -207 220c0 184 118 325 273 325c123 0 197 -79 197 -210c0 -27 -1 -39 -6 -75h-399c-3 -18 -4 -25 -4 -42c0 -104 56 -166 149 -166c80 0 141 47 168 130h64zM85 294h335c2 14 2 19 2 29c0 97 -52 154 -141 154
c-96 0 -170 -69 -196 -183zM261 709l-21 -101h-64l21 101h64zM425 709l-20 -101h-65l21 101h64z" />
    <glyph glyph-name="afii10097" unicode="&#x44f;" horiz-adv-x="519" 
d="M255 224l-221 -224h-79l223 225c-72 7 -125 46 -125 128c0 60 31 115 79 140c31 17 61 21 134 21h228l-109 -514h-63l48 224h-115zM420 462h-159c-35 0 -74 1 -104 -19c-26 -17 -43 -51 -43 -86c0 -33 16 -65 49 -74c18 -5 35 -7 73 -7h145z" />
    <glyph glyph-name="afii10065" unicode="&#x430;" horiz-adv-x="519" 
d="M62 363c23 111 97 164 216 164c114 0 177 -44 177 -123c0 -20 -4 -43 -14 -88l-37 -165c-4 -20 -13 -54 -13 -75c0 -22 8 -32 27 -32c10 0 15 1 30 4l-9 -48c-22 -6 -29 -7 -46 -7c-38 0 -59 21 -59 60c0 8 1 14 4 27c-44 -63 -106 -95 -187 -95c-98 0 -158 54 -158 141
c0 142 142 160 251 168c36 2 111 2 134 32c10 13 18 48 18 75c0 49 -38 73 -116 73c-90 0 -138 -34 -158 -111h-60zM374 278c-29 -29 -103 -29 -141 -32c-75 -5 -179 -16 -179 -116c0 -60 44 -96 115 -96c45 0 85 15 119 45c40 35 54 65 75 153z" />
    <glyph glyph-name="afii10066" unicode="&#x431;" 
d="M565 729c-18 -64 -68 -81 -152 -86l-77 -5c-117 -8 -192 -88 -239 -252h3c37 69 116 131 203 131c126 0 201 -74 201 -201c0 -162 -95 -332 -273 -332c-130 0 -205 80 -205 222c0 127 45 297 119 388c57 71 124 99 223 105l49 3c53 3 67 10 78 27h70zM441 314
c0 91 -50 151 -143 151c-117 0 -210 -115 -210 -268c0 -102 55 -161 146 -161c138 0 207 154 207 278z" />
    <glyph glyph-name="afii10067" unicode="&#x432;" horiz-adv-x="519" 
d="M102 514h197c83 0 178 -7 178 -118c0 -67 -42 -117 -111 -128c56 -12 87 -51 87 -107c0 -70 -44 -133 -111 -152c-30 -8 -49 -9 -111 -9h-237zM155 462l-36 -168h160c33 0 68 0 97 19c26 16 41 45 41 78c0 68 -62 71 -115 71h-147zM109 245l-41 -193h154c43 0 68 1 92 7
c46 11 79 53 79 103c0 80 -72 83 -131 83h-153z" />
    <glyph glyph-name="afii10068" unicode="&#x433;" horiz-adv-x="400" 
d="M434 461h-278l-98 -461h-63l109 514h341z" />
    <glyph glyph-name="afii10069" unicode="&#x434;" 
d="M439 -164h-63l35 164h-414l-35 -164h-63l46 216h61c70 92 117 215 155 396l14 66h336l-98 -462h72zM350 52l87 410h-212l-7 -34c-35 -171 -93 -301 -147 -376h279z" />
    <glyph glyph-name="afii10070" unicode="&#x435;" horiz-adv-x="519" 
d="M454 165c-34 -113 -111 -182 -235 -182c-130 0 -207 82 -207 220c0 184 118 325 273 325c123 0 197 -79 197 -210c0 -27 -1 -39 -6 -75h-399c-3 -18 -4 -25 -4 -42c0 -104 56 -166 149 -166c80 0 141 47 168 130h64zM85 294h335c2 14 2 19 2 29c0 97 -52 154 -141 154
c-96 0 -170 -69 -196 -183z" />
    <glyph glyph-name="afii10072" unicode="&#x436;" horiz-adv-x="704" 
d="M243 264l-238 -264h-80l285 308l-155 206h79l180 -251l53 251h63l-52 -245l274 245h87l-242 -208l162 -306h-71l-138 265l-89 -76l-40 -189h-63l41 191z" />
    <glyph glyph-name="afii10073" unicode="&#x437;" horiz-adv-x="485" 
d="M442 402c0 -68 -55 -117 -109 -128v-2c42 -8 85 -40 85 -103c0 -126 -103 -184 -220 -184c-118 0 -202 61 -202 164c0 6 0 9 1 18h60v-14c0 -75 51 -117 142 -117c84 0 158 41 158 131c0 44 -28 76 -99 76h-88l11 50h69c64 0 132 39 132 107c0 36 -25 76 -120 76
c-94 0 -140 -47 -155 -111h-62c28 126 123 164 225 164c107 0 172 -42 172 -127z" />
    <glyph glyph-name="afii10074" unicode="&#x438;" horiz-adv-x="537" 
d="M404 0h-63l94 440l-363 -440h-83l109 514h63l-93 -440l362 440h83z" />
    <glyph glyph-name="afii10075" unicode="&#x439;" horiz-adv-x="537" 
d="M404 0h-63l94 440l-363 -440h-83l109 514h63l-93 -440l362 440h83zM192 714h39c0 -3 -1 -7 -1 -10c0 -45 31 -72 86 -72c57 0 103 30 124 82h39c-25 -83 -82 -130 -164 -130c-77 0 -124 40 -124 113c0 5 0 11 1 17z" />
    <glyph glyph-name="afii10076" unicode="&#x43a;" horiz-adv-x="463" 
d="M161 514l-56 -259l311 259h84l-255 -209l161 -305h-72l-138 264l-107 -88l-37 -176h-62l110 514h61z" />
    <glyph glyph-name="afii10077" unicode="&#x43b;" horiz-adv-x="537" 
d="M405 0h-63l98 462h-204l-67 -271c-35 -141 -87 -203 -168 -203c-19 0 -47 7 -61 13l11 51c12 -6 36 -11 51 -11c42 0 78 43 105 153l80 320h327z" />
    <glyph glyph-name="afii10078" unicode="&#x43c;" horiz-adv-x="667" 
d="M535 0h-63l90 423h-3l-269 -423h-56l-89 423h-3l-90 -423h-63l109 514h81l96 -443l282 443h87z" />
    <glyph glyph-name="afii10079" unicode="&#x43d;" horiz-adv-x="537" 
d="M403 0h-63l51 242h-288l-51 -242h-63l109 514h63l-46 -219h288l46 219h63z" />
    <glyph glyph-name="afii10080" unicode="&#x43e;" 
d="M505 322c0 -163 -96 -338 -279 -338c-134 0 -211 80 -211 218c0 188 120 327 283 327c129 0 207 -77 207 -207zM293 477c-122 0 -216 -119 -216 -274c0 -105 57 -167 152 -167c143 0 213 160 213 284c0 94 -52 157 -149 157z" />
    <glyph glyph-name="afii10081" unicode="&#x43f;" horiz-adv-x="537" 
d="M403 0h-63l98 462h-288l-98 -462h-63l109 514h414z" />
    <glyph glyph-name="afii10082" unicode="&#x440;" horiz-adv-x="574" 
d="M161 514l-20 -97c41 72 109 112 192 112c116 0 189 -83 189 -216c0 -154 -92 -328 -265 -328c-96 0 -164 51 -176 132l-65 -309h-61l149 706h57zM315 478c-144 0 -212 -167 -212 -289c0 -94 57 -154 147 -154c140 0 211 158 211 279c0 94 -46 164 -146 164z" />
    <glyph glyph-name="afii10083" unicode="&#x441;" horiz-adv-x="519" 
d="M460 166c-37 -112 -113 -181 -238 -181c-128 0 -202 79 -202 215c0 165 104 329 284 329c113 0 186 -66 186 -168v-6h-62v1c0 75 -48 121 -128 121c-145 0 -218 -146 -218 -274c0 -106 52 -165 144 -165c78 0 140 46 170 128h64z" />
    <glyph glyph-name="afii10084" unicode="&#x442;" horiz-adv-x="444" 
d="M471 462h-191l-98 -462h-63l98 462h-191l11 52h445z" />
    <glyph glyph-name="afii10085" unicode="&#x443;" horiz-adv-x="463" 
d="M491 514l-302 -534c-52 -93 -97 -176 -192 -176c-19 0 -28 1 -52 6l11 53c20 -4 31 -5 43 -5c47 0 74 34 97 71l44 71l-96 514h66l74 -437l239 437h68z" />
    <glyph glyph-name="afii10086" unicode="&#x444;" horiz-adv-x="800" 
d="M326 150l47 218c1 8 2 16 2 24c0 51 -37 86 -93 86c-146 0 -211 -184 -211 -307c0 -92 45 -133 116 -133c65 0 125 45 139 112zM690 340c0 97 -49 138 -117 138c-64 0 -123 -46 -137 -110l-47 -218c-2 -9 -3 -18 -3 -26c0 -52 38 -86 94 -86c147 0 210 178 210 302z
M369 54l-52 -246l-63 1l52 245h-2c-32 -40 -84 -69 -140 -69c-88 0 -156 69 -156 188c0 155 89 356 269 356c56 0 97 -24 113 -68h2l54 251h63l-54 -251h2c36 44 83 68 139 68c99 0 159 -72 159 -186c0 -153 -93 -358 -270 -358c-56 0 -100 29 -114 69h-2z" />
    <glyph glyph-name="afii10087" unicode="&#x445;" horiz-adv-x="463" 
d="M484 514l-225 -248l137 -266h-71l-110 226l-198 -226h-76l247 271l-122 243h71l95 -204l177 204h75z" />
    <glyph glyph-name="afii10088" unicode="&#x446;" 
d="M444 -164h-63l35 164h-427l109 514h63l-98 -462h288l98 462h63l-98 -462h76z" />
    <glyph glyph-name="afii10089" unicode="&#x447;" horiz-adv-x="500" 
d="M356 245c-41 -14 -120 -31 -183 -31c-104 0 -152 46 -127 166l28 134h63l-30 -141c-21 -100 41 -102 91 -102c54 0 130 16 170 31l45 212h63l-109 -514h-63z" />
    <glyph glyph-name="afii10090" unicode="&#x448;" horiz-adv-x="789" 
d="M-11 0l109 514h63l-98 -461h238l98 461h63l-98 -461h238l98 461h63l-109 -514h-665z" />
    <glyph glyph-name="afii10091" unicode="&#x449;" horiz-adv-x="808" 
d="M-11 0l109 514h63l-98 -461h238l98 461h63l-98 -461h238l98 461h63l-98 -461h77l-46 -217h-63l35 164h-679z" />
    <glyph glyph-name="afii10092" unicode="&#x44a;" horiz-adv-x="611" 
d="M560 171c0 -62 -33 -121 -84 -149c-33 -17 -66 -22 -140 -22h-235l98 462h-171l11 52h233l-44 -202h151c42 0 71 -3 94 -10c52 -16 87 -69 87 -131zM499 168c0 36 -16 73 -55 84c-19 5 -38 7 -78 7h-148l-44 -207h166c38 0 79 -1 112 21c30 19 47 57 47 95z" />
    <glyph glyph-name="afii10093" unicode="&#x44b;" horiz-adv-x="667" 
d="M579 514h63l-109 -514h-63zM419 171c0 -62 -33 -121 -84 -149c-33 -17 -66 -22 -140 -22h-205l109 514h62l-44 -202h121c42 0 71 -3 94 -10c52 -16 87 -69 87 -131zM358 168c0 36 -16 73 -55 84c-19 5 -38 7 -78 7h-118l-44 -207h136c38 0 79 -1 112 21
c30 19 47 57 47 95z" />
    <glyph glyph-name="afii10094" unicode="&#x44c;" horiz-adv-x="500" 
d="M449 171c0 -62 -33 -121 -84 -149c-33 -17 -66 -22 -140 -22h-235l109 514h62l-44 -202h151c42 0 71 -3 94 -10c52 -16 87 -69 87 -131zM388 168c0 36 -16 73 -55 84c-19 5 -38 7 -78 7h-148l-44 -207h166c38 0 79 -1 112 21c30 19 47 57 47 95z" />
    <glyph glyph-name="afii10095" unicode="&#x44d;" horiz-adv-x="519" 
d="M468 314c0 -165 -104 -329 -284 -329c-113 0 -186 66 -186 168v6h62v-1c0 -75 48 -121 128 -121c118 0 188 97 210 202h-236l11 52h232c1 7 1 13 1 20c0 106 -52 165 -144 165c-73 0 -132 -40 -164 -113h-65c39 103 114 166 233 166c128 0 202 -79 202 -215z" />
    <glyph glyph-name="afii10096" unicode="&#x44e;" horiz-adv-x="760" 
d="M709 322c0 -163 -96 -338 -279 -338c-134 0 -211 80 -211 218c0 14 1 27 2 40h-118l-51 -242h-63l109 514h63l-46 -219h114c33 139 138 234 273 234c129 0 207 -77 207 -207zM497 477c-122 0 -216 -119 -216 -274c0 -105 57 -167 152 -167c143 0 213 160 213 284
c0 94 -52 157 -149 157z" />
    <glyph glyph-name="currency" unicode="&#xa4;" 
d="M51 162l63 63c-30 40 -46 80 -46 131c0 48 16 92 45 130l-63 64l34 34l63 -64c38 30 83 45 131 45c49 0 88 -13 131 -44l63 62l34 -34l-63 -63c28 -40 45 -81 45 -131c0 -49 -16 -90 -46 -129l64 -65l-34 -34l-64 65c-36 -30 -83 -47 -130 -47c-46 0 -92 17 -130 46
l-63 -63zM278 513c-87 0 -158 -70 -158 -158c0 -87 71 -158 158 -158s158 71 158 158c0 88 -71 158 -158 158z" />
    <glyph glyph-name="hyphenminus" unicode="&#xe000;" horiz-adv-x="370" 
d="M302 304l-13 -59h-251l12 59h252z" />
    <glyph glyph-name="quotesinglbase" unicode="&#x201a;" horiz-adv-x="278" 
d="M122 101l-21 -96c-20 -92 -52 -132 -118 -142l9 40c50 19 57 51 67 97h-35l21 101h77z" />
    <glyph glyph-name="daggerdbl" unicode="&#x2021;" 
d="M385 712l-42 -200h201l-11 -52h-201l-75 -360h200l-11 -51h-201l-42 -199h-59l42 199h-200l12 51h199l76 360h-199l11 52h199l43 200h58z" />
    <glyph glyph-name="perthousand" unicode="&#x2030;" horiz-adv-x="1056" 
d="M660 727l-569 -760h-54l569 760h54zM999 198c0 -121 -73 -209 -174 -209c-79 0 -127 50 -127 133c0 104 61 205 174 205c81 0 127 -48 127 -129zM869 285c-84 0 -119 -99 -119 -169c0 -54 29 -85 79 -85c81 0 118 94 118 163c0 49 -25 91 -78 91zM644 198
c0 -121 -73 -209 -174 -209c-79 0 -127 50 -127 133c0 104 61 205 174 205c81 0 127 -48 127 -129zM514 285c-84 0 -119 -99 -119 -169c0 -54 29 -85 79 -85c81 0 118 94 118 163c0 49 -25 91 -78 91zM357 578c0 -121 -73 -209 -174 -209c-79 0 -127 50 -127 133
c0 104 61 205 174 205c81 0 127 -48 127 -129zM227 665c-84 0 -119 -99 -119 -169c0 -54 29 -85 79 -85c81 0 118 94 118 163c0 49 -25 91 -78 91z" />
    <glyph glyph-name="guilsinglleft" unicode="&#x2039;" horiz-adv-x="259" 
d="M205 421l-14 -69l-116 -83l76 -103l-13 -61l-106 139l16 64z" />
    <glyph glyph-name="guilsinglright" unicode="&#x203a;" horiz-adv-x="259" 
d="M90 422l105 -139l-15 -64l-158 -114l15 70l116 83l-77 102z" />
    <glyph glyph-name="brokenbar" unicode="&#xa6;" horiz-adv-x="222" 
d="M84 -89v250h54v-250h-54zM84 411v250h54v-250h-54z" />
    <glyph glyph-name="periodcentered" unicode="&#xb7;" horiz-adv-x="278" 
d="M191 347l-23 -103h-83l23 103h83z" />
    <glyph glyph-name="space" unicode=" " horiz-adv-x="278" 
 />
    </font>
</defs>
</svg>
